<svg id="Layer_1" data-name="Layer 1" xmlns="http://www.w3.org/2000/svg" xmlns:xlink="http://www.w3.org/1999/xlink" viewBox="0 0 79.44 79.44"><defs><style>.cls-1{fill:url(#linear-gradient);}.cls-2{fill:#231f20;}</style><linearGradient id="linear-gradient" x1="50" y1="87.72" x2="50" y2="12.28" gradientTransform="translate(50 -20.71) rotate(45)" gradientUnits="userSpaceOnUse"><stop offset="0" stop-color="#27aae1"/><stop offset="0.17" stop-color="#13a8bf"/><stop offset="0.33" stop-color="#00a79d"/><stop offset="0.39" stop-color="#0cab95"/><stop offset="0.49" stop-color="#2db481"/><stop offset="0.64" stop-color="#63c460"/><stop offset="0.82" stop-color="#adda33"/><stop offset="1" stop-color="#fff200"/></linearGradient></defs><title>logo</title><circle class="cls-1" cx="50" cy="50" r="37.72" transform="translate(-30.99 39.72) rotate(-45)"/><path class="cls-2" d="M50,14.28A35.72,35.72,0,1,1,14.28,50,35.76,35.76,0,0,1,50,14.28m0-4A39.72,39.72,0,1,0,89.72,50,39.72,39.72,0,0,0,50,10.28Z" transform="translate(-10.28 -10.28)"/><path d="M50,77A16,16,0,0,1,34,61V40.24a3.31,3.31,0,0,1,6.62,0V61a9.41,9.41,0,0,0,18.82,0V40.24a3.31,3.31,0,0,1,6.62,0V61A16,16,0,0,1,50,77Z" transform="translate(-10.28 -10.28)"/><circle cx="49.21" cy="18.55" r="3.22"/><circle cx="30.4" cy="18.55" r="3.22"/></svg>